<?xml version="1.0" encoding="UTF-8"?>
<svg version="1.1" xmlns="http://www.w3.org/2000/svg" width="25" height="25">
<path d="M0 0 C8.25 0 16.5 0 25 0 C25 8.25 25 16.5 25 25 C16.75 25 8.5 25 0 25 C0 16.75 0 8.5 0 0 Z " fill="#FED2D2" transform="translate(0,0)"/>
<path d="M0 0 C8.25 0 16.5 0 25 0 C25 8.25 25 16.5 25 25 C20.38 25 15.76 25 11 25 C12.50540139 21.23649653 14.07651946 17.68275746 15.875 14.0625 C16.36742188 13.06347656 16.85984375 12.06445312 17.3671875 11.03515625 C19.04859808 7.90966338 21.03133413 4.9529988 23 2 C15.74 1.67 8.48 1.34 1 1 C1.33 3.31 1.66 5.62 2 8 C2.07066856 9.46610674 2.10903427 10.93457893 2.09765625 12.40234375 C2.09282227 13.51899414 2.09282227 13.51899414 2.08789062 14.65820312 C2.07951172 15.41037109 2.07113281 16.16253906 2.0625 16.9375 C2.05798828 17.71673828 2.05347656 18.49597656 2.04882812 19.29882812 C2.03716908 21.19925268 2.01923877 23.09963706 2 25 C1.34 25 0.68 25 0 25 C0 16.75 0 8.5 0 0 Z " fill="#97A9A8" transform="translate(0,0)"/>
<path d="M0 0 C0.66 0 1.32 0 2 0 C0.63408831 3.54243452 -0.90931484 6.92627929 -2.625 10.3125 C-3.07101562 11.19550781 -3.51703125 12.07851563 -3.9765625 12.98828125 C-4.31429688 13.65214844 -4.65203125 14.31601562 -5 15 C-7.97 15 -10.94 15 -14 15 C-14 12.36 -14 9.72 -14 7 C-12.04350603 6.16235732 -10.08474444 5.33000941 -8.125 4.5 C-6.48917969 3.80390625 -6.48917969 3.80390625 -4.8203125 3.09375 C-2 2 -2 2 0 2 C0 1.34 0 0.68 0 0 Z " fill="#FDB6B6" transform="translate(16,10)"/>
<path d="M0 0 C0.66 0.33 1.32 0.66 2 1 C1.24266726 2.3410477 0.46867264 3.67269781 -0.3125 5 C-0.74175781 5.7425 -1.17101562 6.485 -1.61328125 7.25 C-2.07089844 7.8275 -2.52851563 8.405 -3 9 C-3.99 9 -4.98 9 -6 9 C-6 9.66 -6 10.32 -6 11 C-15.41002278 15.40774487 -15.41002278 15.40774487 -20 16 C-20.33 12.7 -20.66 9.4 -21 6 C-19.68 5.67 -18.36 5.34 -17 5 C-16.67 6.32 -16.34 7.64 -16 9 C-15.67 8.34 -15.34 7.68 -15 7 C-13.14453125 6.54296875 -13.14453125 6.54296875 -10.8125 6.1875 C-5.94074933 5.23027104 -3.5238358 3.43348104 0 0 Z " fill="#FDC8C8" transform="translate(22,1)"/>
<path d="M0 0 C0.33 0 0.66 0 1 0 C1 6.6 1 13.2 1 20 C-2.3 20 -5.6 20 -9 20 C-7.55676531 15.26210835 -5.62773267 11.01141849 -3.375 6.625 C-2.88773438 5.66400391 -2.88773438 5.66400391 -2.390625 4.68359375 C-1.59742593 3.12052499 -0.79922969 1.55999378 0 0 Z " fill="#B4FEB4" transform="translate(23,4)"/>
<path d="M0 0 C0.99 0.33 1.98 0.66 3 1 C2.01 2.485 2.01 2.485 1 4 C0.01 4 -0.98 4 -2 4 C-2 4.66 -2 5.32 -2 6 C-11.41002278 10.40774487 -11.41002278 10.40774487 -16 11 C-15.73828125 9.109375 -15.73828125 9.109375 -15 7 C-13.29296875 5.953125 -13.29296875 5.953125 -11.1875 5.25 C-10.50042969 5.00765625 -9.81335938 4.7653125 -9.10546875 4.515625 C-7 4 -7 4 -3 4 C-3 3.34 -3 2.68 -3 2 C-2.01 1.34 -1.02 0.68 0 0 Z " fill="#FEC0C0" transform="translate(18,6)"/>
<path d="M0 0 C0.33 0 0.66 0 1 0 C1 1.65 1 3.3 1 5 C4.37705625 4.46274105 7.696686 3.88935377 11 3 C10.34 4.65 9.68 6.3 9 8 C6.03 8 3.06 8 0 8 C0 5.36 0 2.72 0 0 Z " fill="#E28A8E" transform="translate(2,17)"/>
<path d="M0 0 C0.556875 0.226875 1.11375 0.45375 1.6875 0.6875 C0.6875 2.6875 0.6875 2.6875 -2.3125 4.6875 C-4.35546875 4.8828125 -4.35546875 4.8828125 -6.5 4.8125 C-8.3871875 4.750625 -8.3871875 4.750625 -10.3125 4.6875 C-9.3225 4.0275 -8.3325 3.3675 -7.3125 2.6875 C-6.508125 2.130625 -5.70375 1.57375 -4.875 1 C-2.3125 -0.3125 -2.3125 -0.3125 0 0 Z " fill="#F4A0A1" transform="translate(13.3125,17.3125)"/>
<path d="M0 0 C-4.625 4 -4.625 4 -8 4 C-8 3.01 -8 2.02 -8 1 C-5.07175348 0.02391783 -3.04386724 -0.08226668 0 0 Z " fill="#FFADAD" transform="translate(11,17)"/>
</svg>
